<svg width="173" height="219" viewBox="0 0 173 219" fill="none" xmlns="http://www.w3.org/2000/svg">
<circle cx="168.762" cy="3.75027" r="3.75027" fill="#C4C4C4"/>
<circle cx="153.761" cy="3.75027" r="3.75027" fill="#C4C4C4"/>
<circle cx="138.76" cy="3.75027" r="3.75027" fill="#C4C4C4"/>
<circle cx="123.759" cy="3.75027" r="3.75027" fill="#C4C4C4"/>
<circle cx="108.758" cy="3.75027" r="3.75027" fill="#C4C4C4"/>
<circle cx="93.7567" cy="3.75027" r="3.75027" fill="#C4C4C4"/>
<circle cx="168.762" cy="18.7514" r="3.75027" fill="#C4C4C4"/>
<circle cx="153.761" cy="18.7514" r="3.75027" fill="#C4C4C4"/>
<circle cx="138.76" cy="18.7514" r="3.75027" fill="#C4C4C4"/>
<circle cx="123.759" cy="18.7514" r="3.75027" fill="#C4C4C4"/>
<circle cx="108.758" cy="18.7514" r="3.75027" fill="#C4C4C4"/>
<circle cx="93.7567" cy="18.7514" r="3.75027" fill="#C4C4C4"/>
<circle cx="78.7557" cy="31.5023" r="3.75027" fill="#C4C4C4"/>
<circle cx="63.7546" cy="31.5023" r="3.75027" fill="#C4C4C4"/>
<circle cx="48.7535" cy="31.5023" r="3.75027" fill="#C4C4C4"/>
<circle cx="33.7524" cy="31.5023" r="3.75027" fill="#C4C4C4"/>
<circle cx="18.7513" cy="31.5023" r="3.75027" fill="#C4C4C4"/>
<circle cx="3.75027" cy="31.5023" r="3.75027" fill="#C4C4C4"/>
<circle cx="78.7557" cy="46.5034" r="3.75027" fill="#C4C4C4"/>
<circle cx="63.7546" cy="46.5034" r="3.75027" fill="#C4C4C4"/>
<circle cx="48.7535" cy="46.5034" r="3.75027" fill="#C4C4C4"/>
<circle cx="33.7524" cy="46.5034" r="3.75027" fill="#C4C4C4"/>
<circle cx="18.7513" cy="46.5034" r="3.75027" fill="#C4C4C4"/>
<circle cx="3.75027" cy="46.5034" r="3.75027" fill="#C4C4C4"/>
<circle cx="168.762" cy="31.5023" r="3.75027" fill="#C4C4C4"/>
<circle cx="153.761" cy="31.5023" r="3.75027" fill="#C4C4C4"/>
<circle cx="138.76" cy="31.5023" r="3.75027" fill="#C4C4C4"/>
<circle cx="123.759" cy="31.5023" r="3.75027" fill="#C4C4C4"/>
<circle cx="108.758" cy="31.5023" r="3.75027" fill="#C4C4C4"/>
<circle cx="93.7567" cy="31.5023" r="3.75027" fill="#C4C4C4"/>
<circle cx="168.762" cy="46.5034" r="3.75027" fill="#C4C4C4"/>
<circle cx="153.761" cy="46.5034" r="3.75027" fill="#C4C4C4"/>
<circle cx="138.76" cy="46.5034" r="3.75027" fill="#C4C4C4"/>
<circle cx="123.759" cy="46.5034" r="3.75027" fill="#C4C4C4"/>
<circle cx="108.758" cy="46.5034" r="3.75027" fill="#C4C4C4"/>
<circle cx="93.7567" cy="46.5034" r="3.75027" fill="#C4C4C4"/>
<circle cx="78.7557" cy="3.75027" r="3.75027" fill="#C4C4C4"/>
<circle cx="63.7546" cy="3.75027" r="3.75027" fill="#C4C4C4"/>
<circle cx="48.7535" cy="3.75027" r="3.75027" fill="#C4C4C4"/>
<circle cx="33.7524" cy="3.75027" r="3.75027" fill="#C4C4C4"/>
<circle cx="18.7513" cy="3.75027" r="3.75027" fill="#C4C4C4"/>
<circle cx="3.75027" cy="3.75027" r="3.75027" fill="#C4C4C4"/>
<circle cx="78.7557" cy="18.7514" r="3.75027" fill="#C4C4C4"/>
<circle cx="63.7546" cy="18.7514" r="3.75027" fill="#C4C4C4"/>
<circle cx="48.7535" cy="18.7514" r="3.75027" fill="#C4C4C4"/>
<circle cx="33.7524" cy="18.7514" r="3.75027" fill="#C4C4C4"/>
<circle cx="18.7513" cy="18.7514" r="3.75027" fill="#C4C4C4"/>
<circle cx="3.75027" cy="18.7514" r="3.75027" fill="#C4C4C4"/>
<circle cx="168.762" cy="59.8168" r="3.75027" fill="#C4C4C4"/>
<circle cx="153.761" cy="59.8168" r="3.75027" fill="#C4C4C4"/>
<circle cx="138.76" cy="59.8168" r="3.75027" fill="#C4C4C4"/>
<circle cx="123.759" cy="59.8168" r="3.75027" fill="#C4C4C4"/>
<circle cx="108.758" cy="59.8168" r="3.75027" fill="#C4C4C4"/>
<circle cx="93.7567" cy="59.8168" r="3.75027" fill="#C4C4C4"/>
<circle cx="168.762" cy="74.8179" r="3.75027" fill="#C4C4C4"/>
<circle cx="153.761" cy="74.8179" r="3.75027" fill="#C4C4C4"/>
<circle cx="138.76" cy="74.8179" r="3.75027" fill="#C4C4C4"/>
<circle cx="123.759" cy="74.8179" r="3.75027" fill="#C4C4C4"/>
<circle cx="108.758" cy="74.8179" r="3.75027" fill="#C4C4C4"/>
<circle cx="93.7567" cy="74.8179" r="3.75027" fill="#C4C4C4"/>
<circle cx="78.7557" cy="87.5688" r="3.75027" fill="#C4C4C4"/>
<circle cx="63.7546" cy="87.5688" r="3.75027" fill="#C4C4C4"/>
<circle cx="48.7535" cy="87.5688" r="3.75027" fill="#C4C4C4"/>
<circle cx="33.7524" cy="87.5688" r="3.75027" fill="#C4C4C4"/>
<circle cx="18.7513" cy="87.5688" r="3.75027" fill="#C4C4C4"/>
<circle cx="3.75027" cy="87.5688" r="3.75027" fill="#C4C4C4"/>
<circle cx="78.7557" cy="102.57" r="3.75027" fill="#C4C4C4"/>
<circle cx="63.7546" cy="102.57" r="3.75027" fill="#C4C4C4"/>
<circle cx="48.7535" cy="102.57" r="3.75027" fill="#C4C4C4"/>
<circle cx="33.7524" cy="102.57" r="3.75027" fill="#C4C4C4"/>
<circle cx="18.7513" cy="102.57" r="3.75027" fill="#C4C4C4"/>
<circle cx="3.75027" cy="102.57" r="3.75027" fill="#C4C4C4"/>
<circle cx="168.762" cy="87.5688" r="3.75027" fill="#C4C4C4"/>
<circle cx="153.761" cy="87.5688" r="3.75027" fill="#C4C4C4"/>
<circle cx="138.76" cy="87.5688" r="3.75027" fill="#C4C4C4"/>
<circle cx="123.759" cy="87.5688" r="3.75027" fill="#C4C4C4"/>
<circle cx="108.758" cy="87.5688" r="3.75027" fill="#C4C4C4"/>
<circle cx="93.7567" cy="87.5688" r="3.75027" fill="#C4C4C4"/>
<circle cx="168.762" cy="102.57" r="3.75027" fill="#C4C4C4"/>
<circle cx="153.761" cy="102.57" r="3.75027" fill="#C4C4C4"/>
<circle cx="138.76" cy="102.57" r="3.75027" fill="#C4C4C4"/>
<circle cx="123.759" cy="102.57" r="3.75027" fill="#C4C4C4"/>
<circle cx="108.758" cy="102.57" r="3.75027" fill="#C4C4C4"/>
<circle cx="93.7567" cy="102.57" r="3.75027" fill="#C4C4C4"/>
<circle cx="78.7557" cy="59.8168" r="3.75027" fill="#C4C4C4"/>
<circle cx="63.7546" cy="59.8168" r="3.75027" fill="#C4C4C4"/>
<circle cx="48.7535" cy="59.8168" r="3.75027" fill="#C4C4C4"/>
<circle cx="33.7524" cy="59.8168" r="3.75027" fill="#C4C4C4"/>
<circle cx="18.7513" cy="59.8168" r="3.75027" fill="#C4C4C4"/>
<circle cx="3.75027" cy="59.8168" r="3.75027" fill="#C4C4C4"/>
<circle cx="78.7557" cy="74.8179" r="3.75027" fill="#C4C4C4"/>
<circle cx="63.7546" cy="74.8179" r="3.75027" fill="#C4C4C4"/>
<circle cx="48.7535" cy="74.8179" r="3.75027" fill="#C4C4C4"/>
<circle cx="33.7524" cy="74.8179" r="3.75027" fill="#C4C4C4"/>
<circle cx="18.7513" cy="74.8179" r="3.75027" fill="#C4C4C4"/>
<circle cx="3.75027" cy="74.8179" r="3.75027" fill="#C4C4C4"/>
<circle cx="168.762" cy="115.883" r="3.75027" fill="#C4C4C4"/>
<circle cx="153.761" cy="115.883" r="3.75027" fill="#C4C4C4"/>
<circle cx="138.76" cy="115.883" r="3.75027" fill="#C4C4C4"/>
<circle cx="123.759" cy="115.883" r="3.75027" fill="#C4C4C4"/>
<circle cx="108.758" cy="115.883" r="3.75027" fill="#C4C4C4"/>
<circle cx="93.7567" cy="115.883" r="3.75027" fill="#C4C4C4"/>
<circle cx="168.762" cy="130.884" r="3.75027" fill="#C4C4C4"/>
<circle cx="153.761" cy="130.884" r="3.75027" fill="#C4C4C4"/>
<circle cx="138.76" cy="130.884" r="3.75027" fill="#C4C4C4"/>
<circle cx="123.759" cy="130.884" r="3.75027" fill="#C4C4C4"/>
<circle cx="108.758" cy="130.884" r="3.75027" fill="#C4C4C4"/>
<circle cx="93.7567" cy="130.884" r="3.75027" fill="#C4C4C4"/>
<circle cx="78.7557" cy="143.635" r="3.75027" fill="#C4C4C4"/>
<circle cx="63.7546" cy="143.635" r="3.75027" fill="#C4C4C4"/>
<circle cx="48.7535" cy="143.635" r="3.75027" fill="#C4C4C4"/>
<circle cx="33.7524" cy="143.635" r="3.75027" fill="#C4C4C4"/>
<circle cx="18.7513" cy="143.635" r="3.75027" fill="#C4C4C4"/>
<circle cx="3.75027" cy="143.635" r="3.75027" fill="#C4C4C4"/>
<circle cx="78.7557" cy="158.636" r="3.75027" fill="#C4C4C4"/>
<circle cx="63.7546" cy="158.636" r="3.75027" fill="#C4C4C4"/>
<circle cx="48.7535" cy="158.636" r="3.75027" fill="#C4C4C4"/>
<circle cx="33.7524" cy="158.636" r="3.75027" fill="#C4C4C4"/>
<circle cx="18.7513" cy="158.636" r="3.75027" fill="#C4C4C4"/>
<circle cx="3.75027" cy="158.636" r="3.75027" fill="#C4C4C4"/>
<circle cx="168.762" cy="143.635" r="3.75027" fill="#C4C4C4"/>
<circle cx="153.761" cy="143.635" r="3.75027" fill="#C4C4C4"/>
<circle cx="138.76" cy="143.635" r="3.75027" fill="#C4C4C4"/>
<circle cx="123.759" cy="143.635" r="3.75027" fill="#C4C4C4"/>
<circle cx="108.758" cy="143.635" r="3.75027" fill="#C4C4C4"/>
<circle cx="93.7567" cy="143.635" r="3.75027" fill="#C4C4C4"/>
<circle cx="168.762" cy="158.636" r="3.75027" fill="#C4C4C4"/>
<circle cx="153.761" cy="158.636" r="3.75027" fill="#C4C4C4"/>
<circle cx="138.76" cy="158.636" r="3.75027" fill="#C4C4C4"/>
<circle cx="123.759" cy="158.636" r="3.75027" fill="#C4C4C4"/>
<circle cx="108.758" cy="158.636" r="3.75027" fill="#C4C4C4"/>
<circle cx="93.7567" cy="158.636" r="3.75027" fill="#C4C4C4"/>
<circle cx="78.7557" cy="115.883" r="3.75027" fill="#C4C4C4"/>
<circle cx="63.7546" cy="115.883" r="3.75027" fill="#C4C4C4"/>
<circle cx="48.7535" cy="115.883" r="3.75027" fill="#C4C4C4"/>
<circle cx="33.7524" cy="115.883" r="3.75027" fill="#C4C4C4"/>
<circle cx="18.7513" cy="115.883" r="3.75027" fill="#C4C4C4"/>
<circle cx="3.75027" cy="115.883" r="3.75027" fill="#C4C4C4"/>
<circle cx="78.7557" cy="130.884" r="3.75027" fill="#C4C4C4"/>
<circle cx="63.7546" cy="130.884" r="3.75027" fill="#C4C4C4"/>
<circle cx="48.7535" cy="130.884" r="3.75027" fill="#C4C4C4"/>
<circle cx="33.7524" cy="130.884" r="3.75027" fill="#C4C4C4"/>
<circle cx="18.7513" cy="130.884" r="3.75027" fill="#C4C4C4"/>
<circle cx="3.75027" cy="130.884" r="3.75027" fill="#C4C4C4"/>
<circle cx="168.762" cy="171.95" r="3.75027" fill="#C4C4C4"/>
<circle cx="153.761" cy="171.95" r="3.75027" fill="#C4C4C4"/>
<circle cx="138.76" cy="171.95" r="3.75027" fill="#C4C4C4"/>
<circle cx="123.759" cy="171.95" r="3.75027" fill="#C4C4C4"/>
<circle cx="108.758" cy="171.95" r="3.75027" fill="#C4C4C4"/>
<circle cx="93.7567" cy="171.95" r="3.75027" fill="#C4C4C4"/>
<circle cx="168.762" cy="186.951" r="3.75027" fill="#C4C4C4"/>
<circle cx="153.761" cy="186.951" r="3.75027" fill="#C4C4C4"/>
<circle cx="138.76" cy="186.951" r="3.75027" fill="#C4C4C4"/>
<circle cx="123.759" cy="186.951" r="3.75027" fill="#C4C4C4"/>
<circle cx="108.758" cy="186.951" r="3.75027" fill="#C4C4C4"/>
<circle cx="93.7567" cy="186.951" r="3.75027" fill="#C4C4C4"/>
<circle cx="78.7557" cy="199.702" r="3.75027" fill="#C4C4C4"/>
<circle cx="63.7546" cy="199.702" r="3.75027" fill="#C4C4C4"/>
<circle cx="48.7535" cy="199.702" r="3.75027" fill="#C4C4C4"/>
<circle cx="33.7524" cy="199.702" r="3.75027" fill="#C4C4C4"/>
<circle cx="18.7513" cy="199.702" r="3.75027" fill="#C4C4C4"/>
<circle cx="3.75027" cy="199.702" r="3.75027" fill="#C4C4C4"/>
<circle cx="78.7557" cy="214.703" r="3.75027" fill="#C4C4C4"/>
<circle cx="63.7546" cy="214.703" r="3.75027" fill="#C4C4C4"/>
<circle cx="48.7535" cy="214.703" r="3.75027" fill="#C4C4C4"/>
<circle cx="33.7524" cy="214.703" r="3.75027" fill="#C4C4C4"/>
<circle cx="18.7513" cy="214.703" r="3.75027" fill="#C4C4C4"/>
<circle cx="3.75027" cy="214.703" r="3.75027" fill="#C4C4C4"/>
<circle cx="168.762" cy="199.702" r="3.75027" fill="#C4C4C4"/>
<circle cx="153.761" cy="199.702" r="3.75027" fill="#C4C4C4"/>
<circle cx="138.76" cy="199.702" r="3.75027" fill="#C4C4C4"/>
<circle cx="123.759" cy="199.702" r="3.75027" fill="#C4C4C4"/>
<circle cx="108.758" cy="199.702" r="3.75027" fill="#C4C4C4"/>
<circle cx="93.7567" cy="199.702" r="3.75027" fill="#C4C4C4"/>
<circle cx="168.762" cy="214.703" r="3.75027" fill="#C4C4C4"/>
<circle cx="153.761" cy="214.703" r="3.75027" fill="#C4C4C4"/>
<circle cx="138.76" cy="214.703" r="3.75027" fill="#C4C4C4"/>
<circle cx="123.759" cy="214.703" r="3.75027" fill="#C4C4C4"/>
<circle cx="108.758" cy="214.703" r="3.75027" fill="#C4C4C4"/>
<circle cx="93.7567" cy="214.703" r="3.75027" fill="#C4C4C4"/>
<circle cx="78.7557" cy="171.95" r="3.75027" fill="#C4C4C4"/>
<circle cx="63.7546" cy="171.95" r="3.75027" fill="#C4C4C4"/>
<circle cx="48.7535" cy="171.95" r="3.75027" fill="#C4C4C4"/>
<circle cx="33.7524" cy="171.95" r="3.75027" fill="#C4C4C4"/>
<circle cx="18.7513" cy="171.95" r="3.75027" fill="#C4C4C4"/>
<circle cx="3.75027" cy="171.95" r="3.75027" fill="#C4C4C4"/>
<circle cx="78.7557" cy="186.951" r="3.75027" fill="#C4C4C4"/>
<circle cx="63.7546" cy="186.951" r="3.75027" fill="#C4C4C4"/>
<circle cx="48.7535" cy="186.951" r="3.75027" fill="#C4C4C4"/>
<circle cx="33.7524" cy="186.951" r="3.75027" fill="#C4C4C4"/>
<circle cx="18.7513" cy="186.951" r="3.75027" fill="#C4C4C4"/>
<circle cx="3.75027" cy="186.951" r="3.75027" fill="#C4C4C4"/>
</svg>
